<svg xmlns="http://www.w3.org/2000/svg" xmlns:xlink="http://www.w3.org/1999/xlink" width="417.884" height="644.454" viewBox="0 0 417.884 644.454">
  <defs>
    <clipPath id="clip-path">
      <rect id="Rect치ngulo_6" data-name="Rect치ngulo 6" width="417.884" height="644.454" transform="translate(0 0)" fill="none" stroke="#00ce95" stroke-width="1"/>
    </clipPath>
    <clipPath id="clip-path-2">
      <rect id="Rect치ngulo_5" data-name="Rect치ngulo 5" width="452.129" height="649.534" fill="none" stroke="#00ce95" stroke-width="1"/>
    </clipPath>
  </defs>
  <g id="Grupo_8" data-name="Grupo 8" style="mix-blend-mode: normal;isolation: isolate">
    <g id="Grupo_7" data-name="Grupo 7" transform="translate(0 0)" clip-path="url(#clip-path)" style="mix-blend-mode: normal;isolation: isolate">
      <g id="Grupo_6" data-name="Grupo 6" transform="translate(0 0)">
        <g id="Grupo_5" data-name="Grupo 5" clip-path="url(#clip-path-2)">
          <g id="Grupo_4" data-name="Grupo 4" transform="translate(0 -268.045)">
            <path id="Trazado_11" data-name="Trazado 11" d="M787.793,750.5c-44.754-1.781-83.447-25.4-103.287-53.852s-23.743-61.1-23.664-92.832c.05-20.1,1.585-40.313,8.01-59.889,6.912-21.056,19.338-40.962,31.2-60.883,52.6-88.352,95.853-185.3,67-278.979C744.449,130.681,680.21,67.876,630.183,1.636S543.3-143.523,580.106-213.971" transform="translate(-493.072 257.274)" fill="none" stroke="#00ce95" stroke-width="1"/>
            <path id="Trazado_12" data-name="Trazado 12" d="M789.781,748.467c-19.351-1.855-38.383-8.273-55.736-17.088-20.635-10.4-38.4-24.423-50.057-40.309-20.388-27.8-24.333-60.309-24.766-91.642-.187-13.6.313-27.251,2.569-40.721a141.137,141.137,0,0,1,4.326-18.433c4.324-14.064,11.13-27.629,18.628-41.07,3.6-6.48,7.357-12.931,11.08-19.388,5.7-9.913,11.337-19.946,16.789-30.065,34.717-64.348,61.9-132.326,58.615-199.564a209.712,209.712,0,0,0-8.1-48.492C747.361,147.526,709.206,99.1,670.869,50.749,657.555,33.926,644.219,17.112,631.8.068c-48.182-66.039-83.6-144.567-46.973-214.83" transform="translate(-492.738 257.215)" fill="none" stroke="#00ce95" stroke-width="1"/>
            <path id="Trazado_13" data-name="Trazado 13" d="M791.769,746.432c-18.458-2.905-37.492-10.524-55.648-19.932-21.162-10.965-40.2-24.816-52.65-41.011-20.884-27.16-24.925-59.516-25.87-90.452-.407-13.423-.141-26.906,1.851-40.208a138.86,138.86,0,0,1,3.932-18.212c3.982-13.91,10.443-27.33,17.586-40.7,3.441-6.444,7.041-12.886,10.632-19.33,5.5-9.9,10.977-19.938,16.3-30.055,33.9-64.254,61.108-132.056,58.687-199a211.153,211.153,0,0,0-7.383-48.2c-14.76-53.884-51.369-102.092-88.238-150.274C658.177,32.275,645.354,15.5,633.417-1.5c-46.337-65.838-80.324-143.976-43.869-214.053" transform="translate(-492.405 257.157)" fill="none" stroke="#00ce95" stroke-width="1"/>
            <path id="Trazado_14" data-name="Trazado 14" d="M793.76,744.395c-17.567-3.955-36.619-12.741-55.561-22.774-21.707-11.5-41.973-25.2-55.243-41.714-21.333-26.543-25.517-58.722-26.974-89.262-.627-13.249-.594-26.559,1.131-39.695a139.617,139.617,0,0,1,3.538-17.99c3.676-13.749,9.743-27.042,16.544-40.336,3.28-6.413,6.724-12.841,10.187-19.271,5.294-9.894,10.617-19.931,15.808-30.045,33.075-64.161,60.313-131.786,58.759-198.445a212.818,212.818,0,0,0-6.666-47.913c-13.755-53.6-48.817-101.593-84.216-149.6-12.266-16.729-24.576-33.46-36.029-50.42C590.544-68.7,557.991-146.453,594.271-216.343" transform="translate(-492.073 257.098)" fill="none" stroke="#00ce95" stroke-width="1"/>
            <path id="Trazado_15" data-name="Trazado 15" d="M795.75,742.359C779.076,737.353,760,727.4,740.276,716.741c-22.254-12.025-43.734-25.584-57.837-42.416-21.738-25.945-26.108-57.93-28.078-88.071a222.281,222.281,0,0,1,.412-39.182,138.28,138.28,0,0,1,3.144-17.768c3.345-13.594,9.04-26.753,15.5-39.97,3.119-6.381,6.406-12.793,9.739-19.212,5.09-9.885,10.257-19.923,15.318-30.035,32.255-64.068,59.666-131.519,58.831-197.886a212.63,212.63,0,0,0-5.948-47.624c-12.748-53.309-46.265-101.095-80.2-148.925-11.743-16.682-23.54-33.372-34.508-50.288-42.648-65.435-73.766-142.793-37.663-212.5" transform="translate(-491.742 257.039)" fill="none" stroke="#00ce95" stroke-width="1"/>
            <path id="Trazado_16" data-name="Trazado 16" d="M797.742,740.322c-15.782-6.055-34.873-17.17-55.387-28.461-22.8-12.548-45.481-25.963-60.43-43.117-22.106-25.368-26.7-57.138-29.182-86.881a221.086,221.086,0,0,1-.307-38.67,137.438,137.438,0,0,1,2.75-17.546c3.014-13.439,8.34-26.466,14.46-39.6,2.959-6.351,6.1-12.742,9.292-19.154,4.907-9.864,9.9-19.915,14.83-30.024,31.432-63.975,58.9-131.248,58.9-197.326a216.236,216.236,0,0,0-5.23-47.335c-11.855-53-43.823-100.521-76.174-148.25-11.258-16.61-22.5-33.283-32.988-50.159-40.8-65.232-70.487-142.2-34.558-211.72" transform="translate(-491.411 256.981)" fill="none" stroke="#00ce95" stroke-width="1"/>
            <path id="Trazado_17" data-name="Trazado 17" d="M799.735,738.285c-14.891-7.1-34-19.381-55.3-31.3-23.349-13.07-47.214-26.341-63.022-43.818-22.439-24.809-27.291-56.345-30.285-85.691a220.055,220.055,0,0,1-1.028-38.158,137.222,137.222,0,0,1,2.356-17.325c2.684-13.285,7.639-26.18,13.419-39.236,2.8-6.321,5.787-12.7,8.844-19.095,4.708-9.855,9.539-19.908,14.34-30.014,30.611-63.882,58.143-130.977,58.972-196.766a218.674,218.674,0,0,0-4.511-47.047c-10.871-52.705-41.294-100.009-72.153-147.574C660.625,25.7,649.9,9.061,639.9-7.772,600.94-72.8,572.692-149.382,608.444-218.714" transform="translate(-491.082 256.922)" fill="none" stroke="#00ce95" stroke-width="1"/>
            <path id="Trazado_18" data-name="Trazado 18" d="M801.727,736.249c-14-8.154-33.13-21.591-55.213-34.147-23.9-13.59-48.936-26.721-65.616-44.521-22.739-24.268-27.882-55.552-31.388-84.5a219.259,219.259,0,0,1-1.746-37.644,136.322,136.322,0,0,1,1.961-17.1c2.353-13.133,6.937-25.9,12.377-38.87,2.638-6.292,5.474-12.649,8.4-19.037,4.507-9.844,9.179-19.9,13.849-30,29.791-63.789,57.38-130.7,59.044-196.208a221.371,221.371,0,0,0-3.794-46.757c-9.885-52.416-38.765-99.5-68.131-146.9-10.227-16.508-20.4-33.126-29.949-49.9-36.976-64.909-63.927-141.018-28.351-210.165" transform="translate(-490.752 256.864)" fill="none" stroke="#00ce95" stroke-width="1"/>
            <path id="Trazado_19" data-name="Trazado 19" d="M803.722,734.212c-13.107-9.2-32.261-23.8-55.126-36.99-24.451-14.108-50.645-27.1-68.208-45.223-23.013-23.743-28.474-54.759-32.492-83.311a218.854,218.854,0,0,1-2.466-37.133A136.077,136.077,0,0,1,647,514.675c2.023-12.98,6.236-25.61,11.336-38.5,2.477-6.263,5.158-12.6,7.951-18.978,4.307-9.833,8.8-19.9,13.36-29.994,28.829-63.76,56.614-130.43,59.114-195.648a224.4,224.4,0,0,0-3.075-46.468c-8.9-52.128-36.235-98.991-64.11-146.225C661.86,22.4,652.218,5.819,643.143-10.908,608.033-75.623,582.5-151.335,617.9-220.3" transform="translate(-490.426 256.805)" fill="none" stroke="#00ce95" stroke-width="1"/>
            <path id="Trazado_20" data-name="Trazado 20" d="M805.719,732.176c-12.216-10.254-31.392-26-55.039-39.834-25-14.624-52.342-27.486-70.8-45.924-23.263-23.236-29.066-53.966-33.6-82.121a218.751,218.751,0,0,1-3.185-36.621,135.645,135.645,0,0,1,1.173-16.658c1.692-12.828,5.534-25.327,10.293-38.137,2.316-6.233,4.844-12.556,7.5-18.919,4.107-9.823,8.436-19.9,12.871-29.983,27.993-63.672,55.848-130.156,59.186-195.089a227.808,227.808,0,0,0-2.358-46.179c-7.913-51.841-33.707-98.484-60.088-145.551-9.2-16.409-18.312-32.952-26.909-49.635C611.523-76.995,587.4-152.31,622.624-221.086" transform="translate(-490.1 256.747)" fill="none" stroke="#00ce95" stroke-width="1"/>
            <path id="Trazado_21" data-name="Trazado 21" d="M807.717,730.139a287.377,287.377,0,0,0-54.952-42.678c-25.558-15.137-54.03-27.874-73.4-46.626-23.488-22.745-29.656-53.175-34.7-80.932a218.936,218.936,0,0,1-3.9-36.107,135.79,135.79,0,0,1,.779-16.436c1.361-12.676,4.832-25.044,9.252-37.771,2.155-6.2,4.528-12.51,7.057-18.86,3.906-9.814,8.073-19.89,12.38-29.973,27.157-63.582,55.08-129.88,59.258-194.529a231.72,231.72,0,0,0-1.639-45.89c-6.926-51.554-31.179-97.978-56.068-144.876C663.1,19.1,654.514,2.6,646.4-14.043c-31.38-64.323-54.089-139.244-19.04-207.833" transform="translate(-489.776 256.688)" fill="none" stroke="#00ce95" stroke-width="1"/>
            <path id="Trazado_22" data-name="Trazado 22" d="M809.717,728.1c-10.432-12.355-29.657-30.413-54.865-45.521-26.112-15.65-55.705-28.267-75.988-47.328-23.7-22.268-30.248-52.382-35.8-79.742a219.379,219.379,0,0,1-4.624-35.595,136.014,136.014,0,0,1,.385-16.214c1.029-12.526,4.129-24.762,8.209-37.4,1.993-6.177,4.214-12.465,6.61-18.8,3.706-9.8,7.712-19.882,11.89-29.963,26.323-63.493,54.312-129.605,59.33-193.969a236.106,236.106,0,0,0-.922-45.6C718,126.7,695.29,80.49,671.893,33.762,663.727,17.451,655.663.986,648.025-15.612c-29.517-64.125-50.81-138.652-15.937-207.055" transform="translate(-489.454 256.629)" fill="none" stroke="#00ce95" stroke-width="1"/>
            <path id="Trazado_23" data-name="Trazado 23" d="M811.719,726.066c-9.54-13.4-28.791-32.614-54.778-48.364-26.667-16.161-57.371-28.665-78.581-48.03-23.884-21.806-30.84-51.589-36.906-78.552a220.171,220.171,0,0,1-5.344-35.083,136.731,136.731,0,0,1-.01-15.992c.7-12.376,3.426-24.482,7.168-37.038,1.832-6.149,3.9-12.419,6.162-18.744,3.506-9.793,7.35-19.875,11.4-29.952,25.487-63.4,53.54-129.329,59.4-193.411a240.819,240.819,0,0,0-.2-45.311C715.079,124.608,693.908,78.62,672,32.065,664.352,15.8,656.816-.625,649.655-17.18,622-81.106,602.125-155.24,636.822-223.457" transform="translate(-489.134 256.571)" fill="none" stroke="#00ce95" stroke-width="1"/>
            <path id="Trazado_24" data-name="Trazado 24" d="M813.722,724.03c-8.648-14.455-27.924-34.815-54.69-51.208-27.223-16.671-59.026-29.07-81.175-48.731-24.057-21.357-31.431-50.8-38.01-77.362a221.5,221.5,0,0,1-6.062-34.57,137.064,137.064,0,0,1-.4-15.771c.364-12.226,2.723-24.2,6.125-36.67,1.671-6.122,3.584-12.373,5.716-18.685,3.3-9.784,6.988-19.868,10.911-29.942,24.653-63.313,52.767-129.052,59.472-192.851a246.374,246.374,0,0,0,.515-45.022c-3.959-50.7-23.591-96.47-44-142.852-7.137-16.216-14.147-32.6-20.83-49.113-25.789-63.726-44.25-137.469-9.73-205.5" transform="translate(-488.815 256.512)" fill="none" stroke="#00ce95" stroke-width="1"/>
            <path id="Trazado_25" data-name="Trazado 25" d="M815.728,721.993c-7.756-15.5-27.058-37.015-54.6-54.05-27.778-17.18-60.672-29.484-83.766-49.435-24.216-20.919-32.023-50-39.114-76.172a223.2,223.2,0,0,1-6.782-34.057,138.184,138.184,0,0,1-.8-15.548c.032-12.078,2.018-23.922,5.085-36.305,1.509-6.1,3.268-12.326,5.268-18.626,3.1-9.774,6.627-19.861,10.421-29.931,23.82-63.221,51.994-128.774,59.544-192.292a252.507,252.507,0,0,0,1.233-44.734c-2.97-50.415-21.062-95.969-39.983-142.176C665.61,12.5,659.126-3.845,652.923-20.316,629-83.84,611.952-157.194,646.3-225.038" transform="translate(-488.5 256.454)" fill="none" stroke="#00ce95" stroke-width="1"/>
            <path id="Trazado_26" data-name="Trazado 26" d="M817.958,719.957c-6.865-16.555-26.194-39.215-54.517-56.894s-62.309-29.9-86.359-50.136c-24.363-20.495-32.614-49.21-40.218-74.982a225.443,225.443,0,0,1-7.5-33.545,139.471,139.471,0,0,1-1.191-15.327c-.3-11.929,1.314-23.643,4.042-35.938,1.348-6.07,2.954-12.281,4.822-18.567,2.9-9.766,6.265-19.854,9.931-29.922,22.987-63.13,51.219-128.5,59.616-191.732a259.449,259.449,0,0,0,1.951-44.445C706.555,118.338,690,73,672.571,26.969q-9.158-24.185-17.789-48.852C632.718-85.2,617.09-158.169,651.259-225.829" transform="translate(-488.408 256.395)" fill="none" stroke="#00ce95" stroke-width="1"/>
            <path id="Trazado_27" data-name="Trazado 27" d="M820.455,717.92c-5.973-17.6-25.33-41.412-54.43-59.737-28.893-18.195-63.937-30.331-88.953-50.837-24.5-20.082-33.205-48.418-41.32-73.792a230.96,230.96,0,0,1-8.221-33.032,144,144,0,0,1-1.586-15.1c-.636-11.783.608-23.367,3-35.572,1.185-6.044,2.637-12.236,4.374-18.509,2.7-9.757,5.9-19.847,9.442-29.911,22.155-63.038,50.44-128.218,59.686-191.174a266.934,266.934,0,0,0,2.669-44.155c-.985-49.851-16-94.976-31.94-140.827q-8.384-24.117-16.269-48.722c-20.2-63.116-34.411-135.694-.419-203.167" transform="translate(-488.583 256.337)" fill="none" stroke="#00ce95" stroke-width="1"/>
            <path id="Trazado_28" data-name="Trazado 28" d="M822.959,715.883c-5.081-18.653-24.466-43.609-54.343-62.58-29.45-18.7-65.555-30.768-91.546-51.539-24.624-19.679-33.8-47.626-42.424-72.6a234.508,234.508,0,0,1-8.941-32.519,146.854,146.854,0,0,1-1.981-14.884,138.877,138.877,0,0,1,1.959-35.2c1.023-6.019,2.322-12.191,3.928-18.451,2.5-9.747,5.542-19.839,8.951-29.9,21.324-62.946,49.661-127.94,59.758-190.614a275.494,275.494,0,0,0,3.387-43.867c.01-49.57-13.466-94.482-27.919-140.153Q666.179-.478,659.039-25.02c-18.341-62.911-31.132-135.1,2.685-202.39" transform="translate(-488.764 256.278)" fill="none" stroke="#00ce95" stroke-width="1"/>
            <path id="Trazado_29" data-name="Trazado 29" d="M825.47,713.848c-4.19-19.7-23.6-45.805-54.256-65.423-30.009-19.207-67.168-31.216-94.139-52.241-24.741-19.287-34.389-46.833-43.528-71.412a238.585,238.585,0,0,1-9.659-32.007c-1.058-4.9-1.82-9.787-2.375-14.661a134.867,134.867,0,0,1,.917-34.838c.858-5.994,2.006-12.147,3.48-18.392,2.3-9.74,5.182-19.832,8.462-29.891,20.495-62.852,48.88-127.661,59.83-190.054a285.171,285.171,0,0,0,4.1-43.578c1.005-49.288-10.932-93.99-23.9-139.478Q667.573-2.11,661.18-26.587C644.7-89.292,633.327-161.1,666.967-228.2" transform="translate(-488.953 256.22)" fill="none" stroke="#00ce95" stroke-width="1"/>
            <path id="Trazado_30" data-name="Trazado 30" d="M827.989,711.81c-3.3-20.753-22.74-48-54.168-68.266-30.568-19.712-68.77-31.673-96.733-52.943-24.85-18.9-34.98-46.04-44.631-70.222a243.546,243.546,0,0,1-10.379-31.494c-1.18-4.821-2.074-9.639-2.769-14.439a131.146,131.146,0,0,1-.125-34.473c.7-5.969,1.691-12.1,3.033-18.332,2.1-9.73,4.821-19.824,7.973-29.88,19.664-62.759,48.1-127.383,59.9-189.495a296.13,296.13,0,0,0,4.824-43.289c2-49.008-8.4-93.5-19.876-138.8-4.04-15.945-7.9-32.065-11.71-48.33-14.624-62.5-24.573-133.92,8.891-200.835" transform="translate(-489.151 256.161)" fill="none" stroke="#00ce95" stroke-width="1"/>
            <path id="Trazado_31" data-name="Trazado 31" d="M830.517,709.775c-2.4-21.8-21.879-50.2-54.081-71.111-31.128-20.215-70.365-32.14-99.326-53.645-24.953-18.529-35.571-45.247-45.735-69.031a248.884,248.884,0,0,1-11.1-30.982c-1.3-4.746-2.328-9.491-3.163-14.218a127.507,127.507,0,0,1-1.167-34.105,178.3,178.3,0,0,1,2.586-18.273c1.895-9.723,4.46-19.817,7.482-29.87,18.835-62.664,47.312-127.1,59.971-188.935a308.281,308.281,0,0,0,5.541-43c3-48.729-5.861-93.009-15.855-138.129-3.522-15.9-6.864-31.974-10.19-48.2-12.767-62.288-21.294-133.328,12-200.058" transform="translate(-489.357 256.102)" fill="none" stroke="#00ce95" stroke-width="1"/>
            <path id="Trazado_32" data-name="Trazado 32" d="M833.054,707.738c-1.513-22.853-21.018-52.389-54-73.954-31.687-20.719-71.953-32.618-101.917-54.346-25.05-18.164-36.163-44.455-46.839-67.842a255.131,255.131,0,0,1-11.818-30.47c-1.429-4.669-2.581-9.342-3.557-13.994a124.171,124.171,0,0,1-2.208-33.739,165.607,165.607,0,0,1,2.14-18.215,287.448,287.448,0,0,1,6.992-29.861c18.008-62.568,46.526-126.823,60.043-188.376a322.21,322.21,0,0,0,6.259-42.71c4-48.45-3.322-92.52-11.833-137.454-3-15.859-5.825-31.883-8.669-48.068-10.912-62.078-18.015-132.737,15.1-199.281" transform="translate(-489.571 256.044)" fill="none" stroke="#00ce95" stroke-width="1"/>
            <path id="Trazado_33" data-name="Trazado 33" d="M835.6,705.7c-.622-23.9-20.156-54.584-53.908-76.8-32.246-21.223-73.533-33.107-104.511-55.049-25.14-17.807-36.754-43.662-47.942-66.652A262.42,262.42,0,0,1,616.7,477.247c-1.552-4.594-2.837-9.194-3.951-13.773A120.96,120.96,0,0,1,609.5,430.1a154.169,154.169,0,0,1,1.692-18.156,265.9,265.9,0,0,1,6.5-29.851c17.182-62.474,45.738-126.545,60.115-187.816a337.992,337.992,0,0,0,6.976-42.422c5-48.169-.782-92.033-7.812-136.779-2.484-15.816-4.785-31.792-7.149-47.938-9.057-61.866-14.735-132.144,18.2-198.5" transform="translate(-489.795 255.985)" fill="none" stroke="#00ce95" stroke-width="1"/>
            <path id="Trazado_34" data-name="Trazado 34" d="M838.154,703.665c.27-24.953-19.3-56.777-53.821-79.64-32.807-21.725-75.106-33.607-107.1-55.75C652,550.817,639.882,525.4,628.182,502.813a270.538,270.538,0,0,1-13.256-29.445c-1.676-4.518-3.091-9.047-4.346-13.551a118.083,118.083,0,0,1-4.292-33.007,144.142,144.142,0,0,1,1.245-18.1,247,247,0,0,1,6.014-29.84C629.9,316.5,658.493,252.607,673.732,191.617a355.8,355.8,0,0,0,7.7-42.133c6-47.89,1.759-91.547-3.792-136.1-1.964-15.774-3.747-31.7-5.629-47.807-7.205-61.654-11.455-131.553,21.305-197.725" transform="translate(-490.027 255.927)" fill="none" stroke="#00ce95" stroke-width="1"/>
            <path id="Trazado_35" data-name="Trazado 35" d="M840.714,701.629c1.162-26-18.435-58.97-53.733-82.484-33.368-22.228-76.673-34.119-109.7-56.452-25.31-17.117-37.938-42.077-50.15-64.273a280.122,280.122,0,0,1-13.976-28.932c-1.8-4.442-3.346-8.9-4.739-13.329a115.313,115.313,0,0,1-5.334-32.639,134.795,134.795,0,0,1,.8-18.039,230.4,230.4,0,0,1,5.523-29.829c15.53-62.282,44.154-125.989,60.257-186.7a376.44,376.44,0,0,0,8.413-41.844c7-47.611,4.3-91.063.231-135.43C676.863-4.051,675.6-19.928,674.2-36c-5.353-61.442-8.176-130.962,24.409-196.948" transform="translate(-490.266 255.868)" fill="none" stroke="#00ce95" stroke-width="1"/>
            <path id="Trazado_36" data-name="Trazado 36" d="M843.283,699.592c2.053-27.053-17.575-61.161-53.646-85.326-33.929-22.731-78.233-34.644-112.291-57.155-25.388-16.78-38.528-41.283-51.253-63.082A290.563,290.563,0,0,1,611.4,465.61c-1.924-4.366-3.6-8.752-5.134-13.107a112.855,112.855,0,0,1-6.376-32.273,126.672,126.672,0,0,1,.351-17.98,215.947,215.947,0,0,1,5.033-29.82c14.706-62.186,43.36-125.71,60.329-186.137a400.313,400.313,0,0,0,9.131-41.555c8.007-47.332,6.852-90.578,4.252-134.755-.924-15.691-1.672-31.517-2.59-47.546-3.506-61.229-4.9-130.37,27.513-196.17" transform="translate(-490.513 255.81)" fill="none" stroke="#00ce95" stroke-width="1"/>
            <path id="Trazado_37" data-name="Trazado 37" d="M845.858,697.556c2.945-28.1-16.716-63.354-53.559-88.17-34.491-23.232-79.787-35.18-114.884-57.856-25.465-16.453-39.12-40.491-52.356-61.892a302.677,302.677,0,0,1-15.415-27.907c-2.047-4.291-3.858-8.6-5.528-12.886A110.578,110.578,0,0,1,596.7,416.94a119.315,119.315,0,0,1-.1-17.922,203.064,203.064,0,0,1,4.544-29.809c13.884-62.089,42.563-125.433,60.4-185.579,4.107-13.851,7.242-27.66,9.848-41.265,9.015-47.052,9.4-90.095,8.274-134.081-.4-15.649-.635-31.425-1.07-47.415-1.658-61.015-1.616-129.779,30.617-195.394" transform="translate(-490.766 255.751)" fill="none" stroke="#00ce95" stroke-width="1"/>
            <path id="Trazado_38" data-name="Trazado 38" d="M848.437,695.519c3.837-29.153-15.857-65.545-53.472-91.013-35.053-23.733-81.334-35.729-117.477-58.558-25.54-16.131-39.712-39.7-53.46-60.7a315.948,315.948,0,0,1-16.134-27.395c-2.172-4.215-4.116-8.456-5.923-12.663a108.566,108.566,0,0,1-8.458-31.539,112.653,112.653,0,0,1-.544-17.863,191.389,191.389,0,0,1,4.054-29.8c13.061-61.993,41.765-125.156,60.471-185.019,4.3-13.757,7.674-27.472,10.568-40.976C678.084,93.218,680.015,50.38,680.357,6.585c.121-15.609.4-31.334.45-47.285.187-60.8,1.663-129.187,33.72-194.615" transform="translate(-491.023 255.692)" fill="none" stroke="#00ce95" stroke-width="1"/>
            <path id="Trazado_39" data-name="Trazado 39" d="M851.021,693.482c4.729-30.2-15-67.735-53.386-93.856-35.613-24.233-82.875-36.291-120.069-59.259-25.61-15.816-40.3-38.906-54.563-59.513-6.142-8.921-11.9-17.94-16.853-26.881-2.3-4.139-4.372-8.308-6.317-12.442a105.253,105.253,0,0,1-10.491-48.977,181.057,181.057,0,0,1,3.564-29.789c12.24-61.9,40.965-124.88,60.543-184.459,4.49-13.662,8.1-27.284,11.285-40.687,11.031-46.493,14.508-89.129,16.315-132.731.646-15.569,1.437-31.243,1.971-47.155,2.029-60.588,4.942-128.6,36.823-193.838" transform="translate(-491.285 255.634)" fill="none" stroke="#00ce95" stroke-width="1"/>
            <path id="Trazado_40" data-name="Trazado 40" d="M853.609,691.446c5.621-31.254-14.14-69.926-53.3-96.7-36.176-24.735-84.41-36.867-122.662-59.962-25.681-15.505-40.895-38.114-55.668-58.322-6.363-8.748-12.349-17.6-17.572-26.369-2.42-4.063-4.63-8.16-6.711-12.22a105.185,105.185,0,0,1-10.542-30.807,101.431,101.431,0,0,1-1.438-17.745,171.906,171.906,0,0,1,3.074-29.779c11.421-61.8,40.163-124.6,60.615-183.9,4.679-13.568,8.537-27.1,12-40.4C673.45,89.033,678.474,46.6,681.745,3.189c1.171-15.528,2.472-31.152,3.491-47.024,3.87-60.375,8.221-128,39.927-193.061" transform="translate(-491.551 255.575)" fill="none" stroke="#00ce95" stroke-width="1"/>
            <path id="Trazado_41" data-name="Trazado 41" d="M856.2,689.409c6.513-32.3-13.281-72.116-53.211-99.543-36.739-25.235-85.94-37.455-125.255-60.663-25.751-15.2-41.486-37.321-56.772-57.133-6.583-8.576-12.8-17.251-18.292-25.856-2.543-3.987-4.888-8.011-7.105-12a103.9,103.9,0,0,1-11.584-30.441A96.709,96.709,0,0,1,582.1,386.09a163.45,163.45,0,0,1,2.584-29.768c10.6-61.7,39.359-124.329,60.684-183.34,4.87-13.473,8.97-26.907,12.721-40.11C671.142,86.94,677.712,44.71,682.446,1.49c1.7-15.486,3.507-31.059,5.009-46.894,5.709-60.161,11.5-127.412,43.031-192.283" transform="translate(-491.82 255.517)" fill="none" stroke="#00ce95" stroke-width="1"/>
            <path id="Trazado_42" data-name="Trazado 42" d="M858.794,687.373c7.4-33.353-12.423-74.306-53.124-102.387-37.3-25.735-87.466-38.057-127.849-61.365-25.819-14.9-42.077-36.527-57.874-55.943-6.8-8.4-13.257-16.9-19.011-25.343-2.668-3.912-5.147-7.861-7.5-11.776a102.731,102.731,0,0,1-12.626-30.073,92.361,92.361,0,0,1-2.332-17.629,155.922,155.922,0,0,1,2.094-29.757c9.784-61.6,38.553-124.055,60.756-182.782,5.058-13.378,9.4-26.717,13.44-39.82C668.838,84.848,676.956,42.822,683.15-.208c2.222-15.445,4.541-30.968,6.529-46.763,7.546-59.949,14.78-126.821,46.135-191.505" transform="translate(-492.092 255.458)" fill="none" stroke="#00ce95" stroke-width="1"/>
            <path id="Trazado_43" data-name="Trazado 43" d="M861.392,685.336c8.3-34.4-11.566-76.495-53.037-105.23-37.865-26.235-88.985-38.672-130.442-62.067-25.888-14.608-42.669-35.736-58.978-54.752-7.025-8.228-13.711-16.561-19.731-24.83-2.792-3.836-5.406-7.712-7.893-11.554-6.113-9.442-10.845-19-13.668-29.707a88.722,88.722,0,0,1-2.779-17.57,149.123,149.123,0,0,1,1.6-29.748c8.968-61.506,37.746-123.782,60.828-182.222,5.247-13.284,9.834-26.529,14.158-39.532,15.082-45.367,24.75-87.191,32.4-130.031,2.751-15.4,5.576-30.877,8.05-46.632,9.381-59.737,18.06-126.23,49.237-190.729" transform="translate(-492.368 255.4)" fill="none" stroke="#00ce95" stroke-width="1"/>
            <path id="Trazado_44" data-name="Trazado 44" d="M863.994,683.3c9.188-35.453-10.708-78.684-52.95-108.073-38.427-26.736-90.5-39.3-133.035-62.769-25.955-14.32-43.261-34.943-60.082-53.562-7.245-8.056-14.165-16.216-20.451-24.319-2.915-3.758-5.665-7.561-8.286-11.332-6.464-9.291-11.573-18.721-14.709-29.341a85.268,85.268,0,0,1-3.227-17.511,142.887,142.887,0,0,1,1.115-29.737c8.152-61.409,36.938-123.511,60.9-181.663,5.435-13.191,10.267-26.339,14.875-39.243A991.769,991.769,0,0,0,684.566-3.606c3.279-15.36,6.609-30.785,9.57-46.5,11.214-59.526,21.34-125.637,52.341-189.95" transform="translate(-492.647 255.341)" fill="none" stroke="#00ce95" stroke-width="1"/>
            <path id="Trazado_45" data-name="Trazado 45" d="M866.6,681.263c10.079-36.5-9.851-80.873-52.863-110.916-38.991-27.234-92.01-39.945-135.629-63.471-26.023-14.036-43.851-34.15-61.185-52.372-7.465-7.883-14.618-15.871-21.169-23.807-3.041-3.682-5.925-7.411-8.682-11.109-6.814-9.14-12.3-18.446-15.751-28.974a82.233,82.233,0,0,1-3.672-17.452,137.189,137.189,0,0,1,.625-29.727c7.337-61.311,36.126-123.24,60.97-181.1,5.624-13.1,10.7-26.15,15.594-38.954A1091.567,1091.567,0,0,0,685.279-5.3c3.809-15.317,7.642-30.694,11.09-46.371,13.046-59.316,24.619-125.047,55.445-189.174" transform="translate(-492.929 255.283)" fill="none" stroke="#00ce95" stroke-width="1"/>
            <path id="Trazado_46" data-name="Trazado 46" d="M869.2,679.228c10.971-37.553-9-83.062-52.777-113.76-39.554-27.734-93.515-40.6-138.22-64.172-26.091-13.757-44.443-33.358-62.289-51.183-7.686-7.709-15.073-15.525-21.889-23.294-3.164-3.607-6.183-7.261-9.076-10.888-7.166-8.987-13.031-18.169-16.792-28.607a79.386,79.386,0,0,1-4.12-17.394,132.081,132.081,0,0,1,.135-29.717C570.7,279,599.49,217.243,625.218,159.669c5.811-13,11.136-25.96,16.312-38.664A1211.209,1211.209,0,0,0,685.994-7c4.338-15.275,8.674-30.6,12.61-46.241,14.876-59.107,27.9-124.455,58.549-188.395" transform="translate(-493.214 255.224)" fill="none" stroke="#00ce95" stroke-width="1"/>
            <path id="Trazado_47" data-name="Trazado 47" d="M871.812,677.191c11.865-38.6-8.137-85.249-52.689-116.6-40.117-28.234-95.016-41.275-140.813-64.874-26.16-13.481-45.035-32.565-63.392-49.993-7.907-7.536-15.527-15.18-22.608-22.781-3.289-3.531-6.443-7.109-9.47-10.666-7.518-8.834-13.762-17.892-17.835-28.241a77.069,77.069,0,0,1-4.567-17.336,127.38,127.38,0,0,1-.354-29.706c5.712-61.115,34.5-122.7,61.114-179.985,6-12.909,11.57-25.769,17.03-38.375C657.382,74.4,673.256,33.4,686.713-8.7c4.868-15.23,9.705-30.514,14.13-46.11,16.7-58.9,31.177-123.863,61.652-187.618" transform="translate(-493.501 255.165)" fill="none" stroke="#00ce95" stroke-width="1"/>
            <path id="Trazado_48" data-name="Trazado 48" d="M874.424,675.155c12.756-39.653-7.281-87.438-52.6-119.446-40.682-28.733-96.514-41.96-143.407-65.577-26.229-13.209-45.626-31.772-64.5-48.8-8.128-7.364-15.981-14.834-23.328-22.269-3.413-3.454-6.7-6.958-9.864-10.444-7.871-8.679-14.494-17.613-18.876-27.874a74.823,74.823,0,0,1-5.014-17.277,123.026,123.026,0,0,1-.845-29.7c4.9-61.018,33.684-122.436,61.185-179.425,6.186-12.817,12.005-25.579,17.748-38.086C655.1,72.316,672.529,31.517,687.433-10.4c5.4-15.185,10.738-30.423,15.649-45.979,18.532-58.693,34.458-123.272,64.755-186.841" transform="translate(-493.79 255.107)" fill="none" stroke="#00ce95" stroke-width="1"/>
            <path id="Trazado_49" data-name="Trazado 49" d="M877.037,673.118c13.647-40.7-6.425-89.625-52.515-122.29-41.246-29.231-98.008-42.659-146-66.278-26.3-12.943-46.218-30.98-65.6-47.613-8.348-7.19-16.45-14.473-24.047-21.756-3.544-3.37-6.963-6.806-10.259-10.222-8.223-8.524-15.227-17.334-19.919-27.508a72.878,72.878,0,0,1-5.461-17.217,119.144,119.144,0,0,1-1.334-29.685c4.09-60.921,32.866-122.17,61.256-178.866,6.372-12.725,12.44-25.388,18.466-37.8C652.825,70.231,671.8,29.639,688.155-12.1c5.931-15.14,11.77-30.334,17.169-45.849,20.358-58.488,37.738-122.679,67.859-186.063" transform="translate(-494.081 255.048)" fill="none" stroke="#00ce95" stroke-width="1"/>
            <path id="Trazado_50" data-name="Trazado 50" d="M879.653,671.081c14.539-41.752-5.569-91.812-52.428-125.132-41.81-29.729-99.5-43.374-148.593-66.98-26.371-12.68-46.81-30.187-66.7-46.423-8.568-7.017-16.9-14.128-24.766-21.243-3.668-3.294-7.222-6.654-10.653-10-8.576-8.367-15.96-17.052-20.96-27.141A71.215,71.215,0,0,1,549.641,357a115.561,115.561,0,0,1-1.824-29.676C551.1,266.5,579.865,205.42,609.146,149.02c6.558-12.632,12.875-25.2,19.184-37.509C650.551,68.148,671.083,27.763,688.879-13.8c6.463-15.094,12.8-30.245,18.69-45.718C729.752-117.8,748.585-181.6,778.531-244.8" transform="translate(-494.375 254.99)" fill="none" stroke="#00ce95" stroke-width="1"/>
            <path id="Trazado_51" data-name="Trazado 51" d="M882.27,669.045c15.43-42.8-4.714-94-52.341-127.976-42.375-30.229-100.985-44.1-151.187-67.682-26.444-12.421-47.4-29.394-67.807-45.233-8.788-6.844-17.355-13.784-25.485-20.731-3.793-3.219-7.483-6.5-11.047-9.778-8.929-8.209-16.693-16.771-22-26.775a69.676,69.676,0,0,1-6.354-17.1,112.273,112.273,0,0,1-2.315-29.666c2.475-60.726,31.228-121.643,61.4-177.746,6.744-12.54,13.31-25,19.9-37.219C648.281,66.064,670.366,25.889,689.6-15.5c7-15.047,13.832-30.157,20.21-45.587,24.007-58.084,44.3-121.5,74.067-184.509" transform="translate(-494.67 254.931)" fill="none" stroke="#00ce95" stroke-width="1"/>
            <path id="Trazado_52" data-name="Trazado 52" d="M884.889,667.008c16.323-43.851-3.925-96.093-52.253-130.819-43-30.643-102.468-44.846-153.779-68.384-26.518-12.165-47.992-28.6-68.91-44.043-9.01-6.671-17.809-13.438-26.205-20.218C579.826,400.4,576,397.2,572.3,393.988c-9.281-8.051-17.427-16.488-23.043-26.408a68.4,68.4,0,0,1-6.8-17.041,109.192,109.192,0,0,1-2.8-29.656c1.667-60.63,30.405-121.382,61.47-177.187,6.93-12.449,13.746-24.813,20.62-36.93,24.271-42.782,47.909-82.747,68.592-123.96,7.528-15,14.863-30.069,21.73-45.457,25.831-57.883,47.575-120.905,77.169-183.73" transform="translate(-494.967 254.873)" fill="none" stroke="#00ce95" stroke-width="1"/>
            <path id="Trazado_53" data-name="Trazado 53" d="M887.51,664.972c17.214-44.9-3.063-98.288-52.167-133.663-43.556-31.149-103.949-45.6-156.371-69.086-26.594-11.912-48.584-27.808-70.014-42.853-9.231-6.5-18.263-13.092-26.925-19.705-4.039-3.066-8-6.2-11.834-9.335-9.634-7.891-18.162-16.2-24.086-26.041a67.312,67.312,0,0,1-7.249-16.983,106.489,106.489,0,0,1-3.293-29.646c.861-60.534,29.583-121.123,61.542-176.627,7.116-12.357,14.182-24.621,21.338-36.641,25.3-42.488,50.488-82.243,72.614-123.285,8.06-14.95,15.892-29.981,23.248-45.326,27.654-57.686,50.856-120.314,80.274-182.954" transform="translate(-495.266 254.814)" fill="none" stroke="#00ce95" stroke-width="1"/>
            <path id="Trazado_54" data-name="Trazado 54" d="M890.133,662.935c18.106-45.951-2.2-100.483-52.08-136.506-44.116-31.655-105.426-46.376-158.965-69.787-26.672-11.664-49.175-27.016-71.117-41.663-9.451-6.324-18.715-12.747-27.644-19.193-4.163-2.99-8.262-6.042-12.229-9.112-9.986-7.731-18.9-15.918-25.127-25.676a66.288,66.288,0,0,1-7.7-16.924,103.959,103.959,0,0,1-3.783-29.635c.057-60.439,28.76-120.865,61.614-176.068,7.3-12.267,14.617-24.429,22.056-36.352C641.482,59.825,668.227,20.281,691.8-20.592c8.593-14.9,16.923-29.894,24.769-45.2,29.476-57.488,54.134-119.722,83.377-182.175" transform="translate(-495.568 254.756)" fill="none" stroke="#00ce95" stroke-width="1"/>
            <path id="Trazado_55" data-name="Trazado 55" d="M892.758,660.9c19-47-1.342-102.679-51.993-139.349-44.675-32.162-106.9-47.163-161.558-70.49-26.751-11.417-49.766-26.224-72.221-40.472-9.671-6.151-19.168-12.4-28.363-18.68-4.287-2.914-8.521-5.887-12.623-8.891-10.339-7.569-19.63-15.63-26.17-25.309a65.463,65.463,0,0,1-8.143-16.865c-3.04-9.524-4.149-19.623-4.274-29.625-.747-60.344,27.935-120.61,61.686-175.508,7.485-12.177,15.053-24.236,22.774-36.063,27.348-41.9,55.644-81.231,80.656-121.936,9.125-14.851,17.953-29.807,26.289-45.065,31.3-57.293,57.414-119.131,86.481-181.4" transform="translate(-495.871 254.697)" fill="none" stroke="#00ce95" stroke-width="1"/>
            <path id="Trazado_56" data-name="Trazado 56" d="M895.386,658.862c19.89-48.052-.48-104.874-51.906-142.192C798.246,484,735.1,468.707,679.329,445.479,652.5,434.3,628.971,420.048,606,406.2c-9.891-5.977-19.62-12.057-29.082-18.168-4.411-2.837-8.781-5.731-13.018-8.668-10.689-7.408-20.364-15.342-27.211-24.942a64.777,64.777,0,0,1-8.59-16.807C524.855,328.1,523.6,317.994,523.34,308c-1.549-60.248,27.108-120.355,61.755-174.95q11.507-18.128,23.492-35.773c28.375-41.6,58.223-80.72,84.677-121.261,9.658-14.8,18.984-29.721,27.809-44.935,33.121-57.1,60.694-118.54,89.585-180.621" transform="translate(-496.176 254.638)" fill="none" stroke="#00ce95" stroke-width="1"/>
            <path id="Trazado_57" data-name="Trazado 57" d="M898.015,656.826c20.781-49.1.381-107.071-51.819-145.036C800.4,478.616,736.347,463.012,679.451,439.9c-26.917-10.935-50.949-24.638-74.427-38.093-10.112-5.8-20.075-11.711-29.8-17.656-4.534-2.76-9.039-5.577-13.412-8.447-11.04-7.245-21.1-15.053-28.253-24.575a64.241,64.241,0,0,1-9.037-16.748c-3.456-9.5-4.843-19.609-5.252-29.6-2.237-60.159,26.281-120.1,61.827-174.39Q592.878,112.389,605.3,94.9c29.4-41.3,60.8-80.208,88.7-120.585q15.288-22.126,29.33-44.805c34.833-56.975,63.972-117.947,92.687-179.843" transform="translate(-496.482 254.58)" fill="none" stroke="#00ce95" stroke-width="1"/>
            <path id="Trazado_58" data-name="Trazado 58" d="M900.645,654.789c21.674-50.152,1.244-109.265-51.731-147.878C802.561,473.23,737.595,457.3,679.576,434.316c-27-10.7-51.541-23.846-75.532-36.9q-15.5-8.449-30.521-17.143c-4.658-2.684-9.3-5.422-13.806-8.224-11.392-7.081-21.833-14.763-29.295-24.21a63.74,63.74,0,0,1-9.484-16.689c-3.666-9.493-5.2-19.6-5.743-29.594-3.058-60.066,25.454-119.852,61.9-173.83q12.059-17.861,24.928-35.2c30.429-41,63.378-79.7,92.719-119.91q16.087-22.048,30.85-44.674c36.678-56.773,67.253-117.356,95.791-179.065" transform="translate(-496.791 254.521)" fill="none" stroke="#00ce95" stroke-width="1"/>
            <path id="Trazado_59" data-name="Trazado 59" d="M903.278,652.753c22.565-51.2,2.105-111.462-51.644-150.723-46.912-34.187-112.787-50.452-171.93-73.3-27.091-10.465-52.132-23.053-76.636-35.712q-15.831-8.189-31.241-16.631c-4.782-2.609-9.556-5.267-14.2-8-11.742-6.917-22.567-14.471-30.336-23.842a63.152,63.152,0,0,1-9.931-16.631c-3.89-9.474-5.563-19.593-6.232-29.583-3.88-59.973,24.52-119.676,61.969-173.271,8.2-11.834,16.817-23.446,25.647-34.908,31.52-40.65,66.027-79.126,96.741-119.236q16.923-21.939,32.368-44.543c38.523-56.572,70.532-116.765,98.895-178.289" transform="translate(-497.102 254.463)" fill="none" stroke="#00ce95" stroke-width="1"/>
            <path id="Trazado_60" data-name="Trazado 60" d="M905.913,650.716c23.457-52.252,2.966-113.657-51.558-153.566-47.47-34.693-114.253-51.309-174.523-74-27.182-10.234-52.722-22.26-77.739-34.523q-16.161-7.928-31.959-16.118c-4.906-2.533-9.816-5.112-14.595-7.781-12.092-6.753-23.3-14.179-31.378-23.476a63.051,63.051,0,0,1-10.379-16.572c-4.095-9.466-5.921-19.587-6.722-29.574-4.7-59.88,23.725-119.408,62.041-172.711,8.393-11.742,17.246-23.256,26.364-34.619C627.992,47.417,664.045,9.152,696.229-30.783Q713.936-52.65,730.117-75.2c40.368-56.37,73.812-116.173,102-177.51" transform="translate(-497.415 254.404)" fill="none" stroke="#00ce95" stroke-width="1"/>
            <path id="Trazado_61" data-name="Trazado 61" d="M908.549,648.681c24.348-53.3,3.827-115.852-51.471-156.41-48.03-35.2-115.719-52.18-177.116-74.7-27.276-10-53.314-21.468-78.843-33.333q-16.491-7.669-32.679-15.605c-5.03-2.456-10.076-4.952-14.989-7.559C541,354.5,529.4,347.2,521.031,337.964a62.734,62.734,0,0,1-10.826-16.514c-4.3-9.456-6.281-19.578-7.211-29.563-5.522-59.788,22.931-119.138,62.113-172.153,8.585-11.647,17.677-23.064,27.082-34.329C625.722,45.331,663.321,7.278,696.974-32.481q18.494-21.8,35.409-44.282A958.027,958.027,0,0,0,837.485-253.5" transform="translate(-497.729 254.346)" fill="none" stroke="#00ce95" stroke-width="1"/>
            <path id="Trazado_62" data-name="Trazado 62" d="M911.187,646.644c25.241-54.352,4.688-118.048-51.384-159.252-48.588-35.706-117.184-53.065-179.709-75.4C640.933,398,603.487,381.72,566.749,364.753c-18.2-8.407-36.714-17.314-48.844-30.08-12.741-13.409-17.261-29.895-18.975-46.008-6.342-59.694,22.136-118.87,62.185-171.593S652.742,16.512,697.72-34.18c60.993-68.742,109.868-142.866,145.134-220.107" transform="translate(-498.045 254.287)" fill="none" stroke="#00ce95" stroke-width="1"/>
          </g>
        </g>
      </g>
    </g>
  </g>
</svg>
